<svg width="669" height="265" viewBox="0 0 669 265" fill="none" xmlns="http://www.w3.org/2000/svg">
<path d="M0.9 11H10.25V79.2H49.3V88H0.9V11ZM61.9921 59.18V30.25H71.3421V59.18L73.5421 88H64.1921L61.9921 59.18ZM67.1621 18.92C65.3288 18.92 63.7521 18.2967 62.4321 17.05C61.1854 15.73 60.5621 14.1533 60.5621 12.32C60.5621 10.4867 61.1854 8.94666 62.4321 7.7C63.7521 6.38 65.3288 5.72 67.1621 5.72C68.9954 5.72 70.5354 6.38 71.7821 7.7C73.1021 8.94666 73.7621 10.4867 73.7621 12.32C73.7621 14.1533 73.1021 15.73 71.7821 17.05C70.5354 18.2967 68.9954 18.92 67.1621 18.92ZM94.9337 89.76C92.147 89.4667 90.0203 88.22 88.5537 86.02C87.1603 83.82 86.537 81.2533 86.6837 78.32L89.3237 38.83H81.5137V30.25H89.8737L91.8537 -1.3113e-06H101.314L99.4437 30.25H107.474V38.83H98.8937L96.4737 75.68C96.327 77.3667 96.5103 78.6133 97.0237 79.42C97.6103 80.1533 98.5637 80.52 99.8837 80.52C101.497 80.52 103.33 80.0433 105.384 79.09H105.824L105.164 88C103.844 88.66 102.267 89.1733 100.434 89.54C98.6737 89.9067 96.8403 89.98 94.9337 89.76ZM142.167 88C134.173 88 127.867 85.5067 123.247 80.52C118.627 75.46 116.28 68.31 116.207 59.07C116.133 52.9833 117.197 47.63 119.397 43.01C121.597 38.39 124.677 34.8333 128.637 32.34C132.597 29.7733 137.107 28.49 142.167 28.49C148.107 28.49 153.057 30.1033 157.017 33.33C160.977 36.4833 163.837 40.6633 165.597 45.87C167.357 51.0767 168.017 56.6867 167.577 62.7H126.107C126.473 68.2733 127.903 72.4167 130.397 75.13C132.89 77.8433 136.813 79.2 142.167 79.2H162.077V88H142.167ZM158.007 54.12C157.493 48.84 155.917 44.7333 153.277 41.8C150.637 38.7933 146.933 37.29 142.167 37.29C137.62 37.29 133.99 38.83 131.277 41.91C128.563 44.99 126.877 49.06 126.217 54.12H158.007ZM180.803 30.25H190.153L190.043 34.54L207.423 28.49V37.73L189.713 44.11L188.283 88H178.713L180.803 30.25ZM234.768 89.76C231.761 89.76 228.974 88.99 226.408 87.45C223.841 85.91 221.751 83.71 220.138 80.85C218.598 77.99 217.828 74.69 217.828 70.95C217.828 67.21 218.818 63.8367 220.798 60.83C222.778 57.8233 225.308 55.4767 228.388 53.79C231.541 52.1033 234.768 51.26 238.068 51.26H252.808C252.734 47.1533 251.598 43.8167 249.398 41.25C247.271 38.6833 244.044 37.4 239.718 37.4C233.264 37.4 228.058 39.5633 224.098 43.89H223.218L220.358 35.2C222.998 33 225.968 31.35 229.268 30.25C232.641 29.0767 235.868 28.49 238.948 28.49C243.788 28.49 247.931 29.4433 251.378 31.35C254.898 33.2567 257.538 35.86 259.298 39.16C261.058 42.46 261.828 46.2 261.608 50.38L259.518 88H250.168L250.498 82.28H249.728C247.748 84.7 245.584 86.57 243.238 87.89C240.964 89.1367 238.141 89.76 234.768 89.76ZM236.858 80.96C239.278 80.96 241.698 80.3367 244.118 79.09C246.611 77.77 248.994 75.7533 251.268 73.04L252.368 59.51H239.168C235.721 59.51 232.861 60.4267 230.588 62.26C228.388 64.02 227.288 66.55 227.288 69.85C227.288 73.15 228.094 75.8267 229.708 77.88C231.321 79.9333 233.704 80.96 236.858 80.96ZM301.796 89.76C296.516 89.76 291.896 88.44 287.936 85.8C284.049 83.16 281.042 79.53 278.916 74.91C276.862 70.2167 275.836 64.9367 275.836 59.07C275.836 52.91 276.972 47.52 279.246 42.9C281.519 38.28 284.636 34.7233 288.596 32.23C292.556 29.7367 297.029 28.49 302.016 28.49C307.736 28.49 312.502 29.8833 316.316 32.67C320.202 35.4567 323.062 39.2333 324.896 44L316.426 47.52C315.399 44.44 313.566 41.9833 310.926 40.15C308.359 38.2433 305.426 37.29 302.126 37.29C298.532 37.29 295.452 38.28 292.886 40.26C290.319 42.1667 288.376 44.77 287.056 48.07C285.809 51.37 285.186 55.0367 285.186 59.07C285.186 63.1033 285.809 66.77 287.056 70.07C288.376 73.37 290.356 76.01 292.996 77.99C295.636 79.97 298.936 80.96 302.896 80.96C305.976 80.96 308.762 80.2267 311.256 78.76C313.749 77.22 315.656 75.24 316.976 72.82L324.896 76.78C322.696 80.74 319.506 83.8933 315.326 86.24C311.146 88.5867 306.636 89.76 301.796 89.76ZM357.166 88.11H348.916L331.536 30.14H341.106L357.826 85.91H357.936L372.346 30.14H381.806L359.366 115.5H350.016L357.166 88.11ZM440.862 11H458.792L480.902 88H471.222L463.522 61.05H436.132L428.322 88H418.642L440.862 11ZM460.992 52.25L449.882 13.64H449.772L438.662 52.25H460.992ZM496.465 39.05H491.955V30.25H517.915C523.635 30.25 528.512 31.6433 532.545 34.43C536.579 37.2167 539.622 41.03 541.675 45.87C543.802 50.71 544.865 56.1367 544.865 62.15C544.865 67.7233 543.839 72.6 541.785 76.78C539.805 80.96 537.165 84.1867 533.865 86.46C530.565 88.66 527.009 89.76 523.195 89.76C519.602 89.76 516.375 89.1367 513.515 87.89C510.655 86.6433 508.235 84.92 506.255 82.72H505.045L504.495 115.5H495.145L496.465 39.05ZM521.105 81.18C525.359 81.18 528.805 79.3467 531.445 75.68C534.085 71.94 535.405 67.0633 535.405 61.05C535.405 54.45 533.755 49.1333 530.455 45.1C527.155 41.0667 522.609 39.05 516.815 39.05H505.815L505.265 73.04C507.612 75.7533 510.215 77.8067 513.075 79.2C515.935 80.52 518.612 81.18 521.105 81.18ZM559.816 30.25H569.166L569.056 35.97C571.329 33.6233 574.153 31.79 577.526 30.47C580.899 29.15 584.456 28.49 588.196 28.49C593.476 28.49 598.279 29.8467 602.606 32.56C607.006 35.2733 610.453 38.9767 612.946 43.67C615.513 48.3633 616.796 53.4967 616.796 59.07C616.796 64.7167 615.513 69.8867 612.946 74.58C610.453 79.2733 607.006 82.9767 602.606 85.69C598.279 88.4033 593.476 89.76 588.196 89.76C584.309 89.76 580.569 88.9533 576.976 87.34C573.456 85.7267 570.413 83.49 567.846 80.63L566.966 115.5H557.616L559.816 30.25ZM588.196 80.96C591.863 80.96 595.199 80.0067 598.206 78.1C601.213 76.12 603.596 73.4433 605.356 70.07C607.116 66.6967 607.996 62.9567 607.996 58.85C607.996 54.9633 607.116 51.37 605.356 48.07C603.596 44.6967 601.213 42.0567 598.206 40.15C595.199 38.2433 591.863 37.29 588.196 37.29C584.676 37.29 581.413 38.2067 578.406 40.04C575.399 41.8 572.979 44.33 571.146 47.63C569.386 50.8567 568.506 54.5967 568.506 58.85C568.506 62.9567 569.386 66.6967 571.146 70.07C572.906 73.4433 575.289 76.12 578.296 78.1C581.303 80.0067 584.603 80.96 588.196 80.96ZM645.68 89.76C638.493 89.76 632.223 88.1467 626.87 84.92V73.92L627.2 74.25C629.913 76.3767 632.553 78.0267 635.12 79.2C637.686 80.3733 641.206 80.96 645.68 80.96C649.566 80.96 652.756 80.2633 655.25 78.87C657.816 77.4767 659.1 75.4967 659.1 72.93C659.1 71.3167 658.44 69.9233 657.12 68.75C655.8 67.5033 653.893 66.33 651.4 65.23L648.32 64.02L638.86 60.5C635.926 59.4 633.506 58.2633 631.6 57.09C629.766 55.8433 628.3 54.2667 627.2 52.36C626.1 50.4533 625.55 48.0333 625.55 45.1C625.55 41.8733 626.503 39.0133 628.41 36.52C630.39 34.0267 632.956 32.0833 636.11 30.69C639.263 29.2967 642.636 28.6 646.23 28.6C651.73 28.6 657.34 29.8467 663.06 32.34V42.68C661.3 41.2867 658.916 40.0767 655.91 39.05C652.976 37.95 649.75 37.4 646.23 37.4C642.563 37.4 639.74 38.0967 637.76 39.49C635.853 40.81 634.9 42.68 634.9 45.1C634.9 46.64 635.56 48.0333 636.88 49.28C638.273 50.5267 640.07 51.5533 642.27 52.36L650.96 55.55L651.51 55.77C655.103 57.09 658.036 58.3367 660.31 59.51C662.583 60.6833 664.49 62.2967 666.03 64.35C667.643 66.33 668.45 68.8233 668.45 71.83C668.45 75.7167 667.276 79.0167 664.93 81.73C662.583 84.37 659.65 86.3867 656.13 87.78C652.683 89.1 649.2 89.76 645.68 89.76ZM0.9 160H53.26V168.8H10.25V200.15H41.16V208.95H10.25V237H0.9V160ZM82.4074 238.76C77.1274 238.76 72.2508 237.403 67.7774 234.69C63.3041 231.903 59.7474 228.163 57.1074 223.47C54.5408 218.777 53.2574 213.607 53.2574 207.96C53.2574 202.46 54.5408 197.363 57.1074 192.67C59.7474 187.977 63.3041 184.273 67.7774 181.56C72.2508 178.847 77.1274 177.49 82.4074 177.49C87.7608 177.49 92.6741 178.847 97.1474 181.56C101.621 184.273 105.177 187.977 107.817 192.67C110.457 197.363 111.777 202.46 111.777 207.96C111.777 213.607 110.457 218.777 107.817 223.47C105.177 228.163 101.621 231.903 97.1474 234.69C92.6741 237.403 87.7608 238.76 82.4074 238.76ZM82.2974 229.96C86.1108 229.96 89.5941 228.97 92.7474 226.99C95.9008 225.01 98.3941 222.37 100.227 219.07C102.061 215.697 102.977 212.03 102.977 208.07C102.977 204.11 102.061 200.48 100.227 197.18C98.3941 193.807 95.9008 191.167 92.7474 189.26C89.5941 187.28 86.1108 186.29 82.2974 186.29C78.6308 186.29 75.2208 187.28 72.0674 189.26C68.9874 191.167 66.5308 193.807 64.6974 197.18C62.9374 200.48 62.0574 204.073 62.0574 207.96C62.0574 211.993 62.9374 215.697 64.6974 219.07C66.5308 222.443 68.9874 225.12 72.0674 227.1C75.2208 229.007 78.6308 229.96 82.2974 229.96ZM125.591 179.25H134.941L134.611 186.84H135.601C139.268 181.34 144.291 178.59 150.671 178.59C152.064 178.59 153.458 178.773 154.851 179.14C156.244 179.433 157.308 179.91 158.041 180.57L156.721 190.91H155.841C155.034 190.177 154.008 189.59 152.761 189.15C151.514 188.637 150.231 188.38 148.911 188.38C145.978 188.38 143.301 189.187 140.881 190.8C138.534 192.34 136.298 194.687 134.171 197.84L132.741 237H123.391L125.591 179.25ZM198.771 160H208.121V228.2H247.171V237H198.771V160ZM282.545 238.76C276.678 238.76 271.545 237.073 267.145 233.7C262.818 230.253 259.591 225.34 257.465 218.96L251.525 220.39L249.655 211.81L255.485 210.27C254.825 204.843 255.191 199.893 256.585 195.42C258.051 190.873 260.398 187.097 263.625 184.09C266.851 181.083 270.738 179.103 275.285 178.15C279.831 177.123 284.305 177.233 288.705 178.48C293.178 179.727 297.028 182.623 300.255 187.17C303.555 191.717 305.535 198.097 306.195 206.31L267.035 216.43C268.428 220.903 270.408 224.277 272.975 226.55C275.615 228.823 278.805 229.96 282.545 229.96C286.431 229.96 290.061 229.3 293.435 227.98C296.808 226.587 300.255 224.717 303.775 222.37L306.195 231.17L304.765 231.94C301.171 233.993 297.688 235.643 294.315 236.89C291.015 238.137 287.091 238.76 282.545 238.76ZM295.305 200.04C294.351 194.98 292.225 191.24 288.925 188.82C285.698 186.327 281.775 185.63 277.155 186.73C274.001 187.463 271.435 188.82 269.455 190.8C267.548 192.78 266.228 195.237 265.495 198.17C264.835 201.03 264.688 204.257 265.055 207.85L295.305 200.04ZM337.463 238.76C334.456 238.76 331.67 237.99 329.103 236.45C326.536 234.91 324.446 232.71 322.833 229.85C321.293 226.99 320.523 223.69 320.523 219.95C320.523 216.21 321.513 212.837 323.493 209.83C325.473 206.823 328.003 204.477 331.083 202.79C334.236 201.103 337.463 200.26 340.763 200.26H355.503C355.43 196.153 354.293 192.817 352.093 190.25C349.966 187.683 346.74 186.4 342.413 186.4C335.96 186.4 330.753 188.563 326.793 192.89H325.913L323.053 184.2C325.693 182 328.663 180.35 331.963 179.25C335.336 178.077 338.563 177.49 341.643 177.49C346.483 177.49 350.626 178.443 354.073 180.35C357.593 182.257 360.233 184.86 361.993 188.16C363.753 191.46 364.523 195.2 364.303 199.38L362.213 237H352.863L353.193 231.28H352.423C350.443 233.7 348.28 235.57 345.933 236.89C343.66 238.137 340.836 238.76 337.463 238.76ZM339.553 229.96C341.973 229.96 344.393 229.337 346.813 228.09C349.306 226.77 351.69 224.753 353.963 222.04L355.063 208.51H341.863C338.416 208.51 335.556 209.427 333.283 211.26C331.083 213.02 329.983 215.55 329.983 218.85C329.983 222.15 330.79 224.827 332.403 226.88C334.016 228.933 336.4 229.96 339.553 229.96ZM379.081 179.25H388.431V186.84H389.531C393.198 181.34 398.221 178.59 404.601 178.59C405.994 178.59 407.388 178.773 408.781 179.14C410.174 179.433 411.238 179.91 411.971 180.57L410.651 190.91H409.771C408.964 190.177 407.938 189.59 406.691 189.15C405.444 188.637 404.161 188.38 402.841 188.38C397.268 188.38 392.464 191.423 388.431 197.51V237H379.081V179.25ZM426.756 179.25H436.106L435.116 191.68L460.526 179.25H469.876L470.536 237H461.186L460.636 189.04L434.236 201.47L431.266 237H421.916L426.756 179.25ZM490.599 237C488.985 232.013 487.922 226 487.409 218.96C486.895 211.92 486.932 204.843 487.519 197.73C488.105 190.617 489.132 184.457 490.599 179.25H500.499C498.812 183.797 497.602 189.847 496.869 197.4C496.209 204.88 496.172 212.287 496.759 219.62C497.419 226.953 498.739 232.747 500.719 237H490.599ZM497.089 168.36C495.329 168.36 493.789 167.7 492.469 166.38C491.149 165.06 490.489 163.52 490.489 161.76C490.489 160 491.149 158.46 492.469 157.14C493.789 155.82 495.329 155.16 497.089 155.16C498.849 155.16 500.389 155.82 501.709 157.14C503.029 158.46 503.689 160 503.689 161.76C503.689 163.52 503.029 165.06 501.709 166.38C500.389 167.7 498.849 168.36 497.089 168.36ZM517.492 179.25H526.842V186.84H527.942C530.362 184.053 533.148 181.817 536.302 180.13C539.528 178.37 542.828 177.49 546.202 177.49C549.795 177.49 552.948 178.443 555.662 180.35C558.448 182.257 560.575 184.713 562.042 187.72C563.582 190.727 564.352 193.843 564.352 197.07V237H554.892L554.782 199.49C554.782 195.53 553.828 192.377 551.922 190.03C550.015 187.61 547.412 186.4 544.112 186.4C538.465 186.4 532.708 190.067 526.842 197.4V237H517.492V179.25ZM581.764 255.7H620.154L610.584 237.77C608.31 238.43 605.964 238.76 603.544 238.76C598.557 238.76 594.084 237.477 590.124 234.91C586.237 232.27 583.157 228.64 580.884 224.02C578.684 219.327 577.584 214.01 577.584 208.07C577.584 202.203 578.684 196.96 580.884 192.34C583.157 187.647 586.237 184.017 590.124 181.45C594.084 178.81 598.557 177.49 603.544 177.49H629.504V186.29H622.354C624.7 189.003 626.46 192.23 627.634 195.97C628.88 199.637 629.504 203.67 629.504 208.07C629.504 213.643 628.55 218.63 626.644 223.03C624.737 227.43 622.06 230.95 618.614 233.59L630.164 255.7V264.5H581.764V255.7ZM603.544 229.63C604.497 229.63 605.34 229.593 606.074 229.52L602.554 223.03L610.474 218.08L614.324 225.45C616.304 223.617 617.77 221.197 618.724 218.19C619.677 215.183 620.154 211.81 620.154 208.07C620.154 202.057 618.724 196.997 615.864 192.89C613.004 188.71 608.897 186.62 603.544 186.62C598.19 186.62 594.084 188.71 591.224 192.89C588.364 196.997 586.934 202.057 586.934 208.07C586.934 214.523 588.327 219.73 591.114 223.69C593.974 227.65 598.117 229.63 603.544 229.63Z" fill="#48B2B3"/>
</svg>
